# Created by Kenney (www.kenney.nl)

mtllib Camper_Torso_Back.mtl

v 4 -5 1
v 4 -5 -1
v -4 -5 1
v -4 -5 -1
v -4 7 -1
v -4 7 1
v 4 7 -1
v 4 7 1
v 4 6 1
v 4 6 -1
v 3 6 1
v 3 6 -1
v 3 7 -1
v 3 7 1

vn 0 -1 0
vn -1 0 0
vn 0 0 -1
vn 0 0 1
vn 1 0 0
vn 0 1 0

vt 0.3125 0.3671875
vt 0.3125 0.3984375
vt 0.4375 0.3671875
vt 0.4375 0.3984375
vt 0.3671875 0.546875
vt 0.3671875 0.734375
vt 0.3984375 0.546875
vt 0.3984375 0.734375
vt 0.1875 0.546875
vt 0.0625 0.546875
vt 0.1875 0.734375
vt 0.0625 0.734375
vt 0.6875 0.546875
vt 0.5625 0.546875
vt 0.6875 0.734375
vt 0.5625 0.734375
vt 0.8984375 0.734375
vt 0.8984375 0.546875
vt 0.8671875 0.734375
vt 0.8671875 0.546875
vt 0.3125 0.8671875
vt 0.3125 0.8984375
vt 0.4375 0.8671875
vt 0.4375 0.8984375
vt 0.328125 0.3671875
vt 0.328125 0.3984375
vt 0.3671875 0.71875
vt 0.3984375 0.71875
vt 0.078125 0.71875
vt 0.0625 0.71875
vt 0.078125 0.734375
vt 0.6875 0.71875
vt 0.671875 0.71875
vt 0.671875 0.734375
vt 0.8984375 0.71875
vt 0.8671875 0.71875
vt 0.328125 0.8671875
vt 0.328125 0.8984375

usemtl Camper_Torso_Back

f 3/3/1 2/2/1 1/1/1
f 2/2/1 3/3/1 4/4/1
f 3/7/2 5/6/2 4/5/2
f 5/6/2 3/7/2 6/8/2
f 5/11/3 2/10/3 4/9/3
f 2/10/3 5/11/3 7/12/3
f 8/15/4 3/14/4 1/13/4
f 3/14/4 8/15/4 6/16/4
f 8/19/5 2/18/5 7/17/5
f 2/18/5 8/19/5 1/20/5
f 5/23/6 8/22/6 7/21/6
f 8/22/6 5/23/6 6/24/6
f 11/25/1 10/2/1 9/1/1
f 10/2/1 11/25/1 12/26/1
f 11/28/2 13/6/2 12/27/2
f 13/6/2 11/28/2 14/8/2
f 13/31/3 10/30/3 12/29/3
f 10/30/3 13/31/3 7/12/3
f 8/15/4 11/33/4 9/32/4
f 11/33/4 8/15/4 14/34/4
f 8/19/5 10/35/5 7/17/5
f 10/35/5 8/19/5 9/36/5
f 13/37/6 8/22/6 7/21/6
f 8/22/6 13/37/6 14/38/6

