# Created by Kenney (www.kenney.nl)

mtllib Camper_Leg.mtl

v 2.258819 -6.965926 1.5
v 2.258819 -6.965926 -1.5
v 2 -7 1.5
v 2.5 -6.866025 1.5
v 2.5 -6.866025 -1.5
v 2.707107 -6.707107 1.5
v 2.707107 -6.707107 -1.5
v 2.866025 -6.5 1.5
v 2 -7 -1.5
v 2 -6 -1.5
v 2 -6 1.5
v 3 -6 -1.5
v 3 -6 1.5
v 2.866025 -6.5 -1.5
v 2.965926 -6.258819 -1.5
v 2.965926 -6.258819 1.5
v -3 -6 1.5
v -2.965926 -6.258819 1.5
v -3 -6 -1.5
v -2 -7 1.5
v -2 -7 -1.5
v -2.258819 -6.965926 1.5
v -2.258819 -6.965926 -1.5
v -2.5 -6.866025 1.5
v -2.5 -6.866025 -1.5
v -2.707107 -6.707107 1.5
v -2.707107 -6.707107 -1.5
v -2.866025 -6.5 -1.5
v -2 -6 -1.5
v -2 -6 1.5
v -2.965926 -6.258819 -1.5
v -2.866025 -6.5 1.5
v 3 4 1.5
v 3 4 -1.5
v -3 4 1.5
v -3 4 -1.5
v -3 9 -1.5
v -3 9 1.5
v 3 9 -1.5
v 3 9 1.5
v 3 3 1.5
v 3 3 -1.5
v -3 3 1.5
v -3 3 -1.5

vn 0.2588191 -0.9659259 0
vn 0.1305262 -0.9914449 0
vn 0.5 -0.8660254 0
vn 0.7071068 -0.7071068 0
vn 0.8660254 -0.5 0
vn -1 0 0
vn 0 1 0
vn 0 0 -1
vn 0 0 1
vn 0.9914449 -0.1305262 0
vn 0.9659259 -0.2588191 0
vn -0.9914449 -0.1305262 0
vn -0.9659259 -0.2588191 0
vn -0.1305262 -0.9914449 0
vn -0.2588191 -0.9659259 0
vn -0.5 -0.8660254 0
vn -0.7071068 -0.7071068 0
vn -0.8660254 -0.5 0
vn 1 0 0
vn 0 -1 0

vt 0.3397059 0.359375
vt 0.3397059 0.40625
vt 0.34375 0.359375
vt 0.3359375 0.359375
vt 0.3359375 0.40625
vt 0.3327014 0.359375
vt 0.3327014 0.40625
vt 0.859375 0.5202014
vt 0.859375 0.5234375
vt 0.90625 0.5202014
vt 0.34375 0.40625
vt 0.359375 0.515625
vt 0.359375 0.53125
vt 0.40625 0.515625
vt 0.40625 0.53125
vt 0.328125 0.859375
vt 0.328125 0.90625
vt 0.34375 0.859375
vt 0.34375 0.90625
vt 0.09375 0.515625
vt 0.08970595 0.5161574
vt 0.09375 0.53125
vt 0.0859375 0.5177184
vt 0.08270146 0.5202014
vt 0.08021835 0.5234375
vt 0.07865741 0.5272059
vt 0.078125 0.53125
vt 0.65625 0.515625
vt 0.65625 0.53125
vt 0.6602941 0.5161574
vt 0.6640625 0.5177184
vt 0.6672986 0.5202014
vt 0.6697816 0.5234375
vt 0.6713426 0.5272059
vt 0.671875 0.53125
vt 0.90625 0.53125
vt 0.90625 0.5272059
vt 0.859375 0.53125
vt 0.90625 0.5234375
vt 0.859375 0.5272059
vt 0.40625 0.5272059
vt 0.40625 0.359375
vt 0.40625 0.40625
vt 0.4102941 0.359375
vt 0.4102941 0.40625
vt 0.4140625 0.359375
vt 0.4140625 0.40625
vt 0.4172986 0.359375
vt 0.359375 0.5202014
vt 0.359375 0.5234375
vt 0.40625 0.5202014
vt 0.4172986 0.40625
vt 0.40625 0.859375
vt 0.40625 0.90625
vt 0.421875 0.859375
vt 0.421875 0.90625
vt 0.90625 0.515625
vt 0.859375 0.515625
vt 0.15625 0.515625
vt 0.15625 0.53125
vt 0.1602941 0.5161574
vt 0.1640625 0.5177184
vt 0.1672985 0.5202014
vt 0.1697817 0.5234375
vt 0.1713426 0.5272059
vt 0.171875 0.53125
vt 0.59375 0.515625
vt 0.5897059 0.5161574
vt 0.59375 0.53125
vt 0.5859375 0.5177184
vt 0.5827014 0.5202014
vt 0.5802184 0.5234375
vt 0.5786574 0.5272059
vt 0.578125 0.53125
vt 0.359375 0.5272059
vt 0.40625 0.5234375
vt 0.328125 0.359375
vt 0.328125 0.40625
vt 0.421875 0.359375
vt 0.421875 0.40625
vt 0.359375 0.6875
vt 0.359375 0.765625
vt 0.40625 0.6875
vt 0.40625 0.765625
vt 0.171875 0.6875
vt 0.078125 0.6875
vt 0.171875 0.765625
vt 0.078125 0.765625
vt 0.671875 0.6875
vt 0.578125 0.6875
vt 0.671875 0.765625
vt 0.578125 0.765625
vt 0.90625 0.765625
vt 0.90625 0.6875
vt 0.859375 0.765625
vt 0.859375 0.6875
vt 0.359375 0.671875
vt 0.40625 0.671875
vt 0.171875 0.671875
vt 0.078125 0.671875
vt 0.671875 0.671875
vt 0.578125 0.671875
vt 0.90625 0.671875
vt 0.859375 0.671875

usemtl Camper_Leg

f 3/3/2 2/2/1 1/1/1
f 1/1/1 5/5/3 4/4/3
f 4/4/3 7/7/4 6/6/4
f 7/10/4 8/9/5 6/8/4
f 7/7/4 4/4/3 5/5/3
f 5/5/3 1/1/1 2/2/1
f 2/2/1 3/3/2 9/11/2
f 3/14/6 10/13/6 9/12/6
f 10/13/6 3/14/6 11/15/6
f 10/18/7 13/17/7 12/16/7
f 13/17/7 10/18/7 11/19/7
f 10/22/8 2/21/8 9/20/8
f 2/21/8 10/22/8 5/23/8
f 5/23/8 10/22/8 7/24/8
f 7/24/8 10/22/8 14/25/8
f 14/25/8 10/22/8 15/26/8
f 15/26/8 10/22/8 12/27/8
f 1/30/9 11/29/9 3/28/9
f 11/29/9 1/30/9 4/31/9
f 11/29/9 4/31/9 6/32/9
f 11/29/9 6/32/9 8/33/9
f 11/29/9 8/33/9 16/34/9
f 11/29/9 16/34/9 13/35/9
f 13/38/10 15/37/11 12/36/10
f 16/40/11 14/39/5 15/37/11
f 15/37/11 13/38/10 16/40/11
f 14/39/5 16/40/11 8/9/5
f 8/9/5 7/10/4 14/39/5
f 19/13/12 18/41/13 17/15/12
f 22/44/15 21/43/14 20/42/14
f 24/46/16 23/45/15 22/44/15
f 26/48/17 25/47/16 24/46/16
f 26/51/17 28/50/18 27/49/17
f 25/47/16 26/48/17 27/52/17
f 23/45/15 24/46/16 25/47/16
f 21/43/14 22/44/15 23/45/15
f 19/55/7 30/54/7 29/53/7
f 30/54/7 19/55/7 17/56/7
f 30/38/19 21/57/19 29/36/19
f 21/57/19 30/38/19 20/58/19
f 23/61/8 29/60/8 21/59/8
f 29/60/8 23/61/8 25/62/8
f 29/60/8 25/62/8 27/63/8
f 29/60/8 27/63/8 28/64/8
f 29/60/8 28/64/8 31/65/8
f 29/60/8 31/65/8 19/66/8
f 30/69/9 22/68/9 20/67/9
f 22/68/9 30/69/9 24/70/9
f 24/70/9 30/69/9 26/71/9
f 26/71/9 30/69/9 32/72/9
f 32/72/9 30/69/9 18/73/9
f 18/73/9 30/69/9 17/74/9
f 32/76/18 31/75/13 28/50/18
f 28/50/18 26/51/17 32/76/18
f 31/75/13 32/76/18 18/41/13
f 18/41/13 19/13/12 31/75/13
f 35/79/20 34/78/20 33/77/20
f 34/78/20 35/79/20 36/80/20
f 35/83/6 37/82/6 36/81/6
f 37/82/6 35/83/6 38/84/6
f 37/87/8 34/86/8 36/85/8
f 34/86/8 37/87/8 39/88/8
f 40/91/9 35/90/9 33/89/9
f 35/90/9 40/91/9 38/92/9
f 40/95/19 34/94/19 39/93/19
f 34/94/19 40/95/19 33/96/19
f 37/55/7 40/17/7 39/16/7
f 40/17/7 37/55/7 38/56/7
f 43/79/20 42/78/20 41/77/20
f 42/78/20 43/79/20 44/80/20
f 43/98/6 36/81/6 44/97/6
f 36/81/6 43/98/6 35/83/6
f 36/85/8 42/100/8 44/99/8
f 42/100/8 36/85/8 34/86/8
f 33/89/9 43/102/9 41/101/9
f 43/102/9 33/89/9 35/90/9
f 33/96/19 42/103/19 34/94/19
f 42/103/19 33/96/19 41/104/19
f 36/55/7 33/17/7 34/16/7
f 33/17/7 36/55/7 35/56/7
f 17/79/20 12/78/20 13/77/20
f 12/78/20 17/79/20 19/80/20
f 17/15/6 44/97/6 19/13/6
f 44/97/6 17/15/6 43/98/6
f 44/99/8 12/27/8 19/66/8
f 12/27/8 44/99/8 42/100/8
f 41/101/9 17/74/9 13/35/9
f 17/74/9 41/101/9 43/102/9
f 41/104/19 12/36/19 42/103/19
f 12/36/19 41/104/19 13/38/19
f 44/55/7 41/17/7 42/16/7
f 41/17/7 44/55/7 43/56/7
f 20/42/20 9/11/20 3/3/20
f 9/11/20 20/42/20 21/43/20
f 20/14/6 29/13/6 21/12/6
f 29/13/6 20/14/6 30/15/6
f 29/60/8 9/20/8 21/59/8
f 9/20/8 29/60/8 10/22/8
f 11/29/9 20/67/9 3/28/9
f 20/67/9 11/29/9 30/69/9
f 11/38/19 9/57/19 10/36/19
f 9/57/19 11/38/19 3/58/19
f 29/53/7 11/19/7 10/18/7
f 11/19/7 29/53/7 30/54/7

