# Created by Kenney (www.kenney.nl)

mtllib Mosquito_Eyes.mtl

v 5 2 1
v 4 2 1
v 4.965926 2.258819 1
v 4 3 1
v 4.866025 2.5 1
v 4.707107 2.707107 1
v 4.5 2.866025 1
v 4.258819 2.965926 1
v 5 2 -1
v 4.258819 2.965926 -1
v 4 3 -1
v 4.5 2.866025 -1
v 4.707107 2.707107 -1
v 4.866025 2.5 -1
v 4.965926 2.258819 -1
v 4 2 -1
v 4.258819 -0.9659258 1
v 4.258819 -0.9659258 -1
v 4 -1 1
v 4.5 -0.8660254 1
v 4.5 -0.8660254 -1
v 4.707107 -0.7071068 1
v 4.707107 -0.7071068 -1
v 4.866025 -0.5 1
v 4 -1 -1
v 4 0 -1
v 4 0 1
v 5 0 -1
v 5 0 1
v 4.866025 -0.5 -1
v 4.965926 -0.258819 -1
v 4.965926 -0.258819 1
v 1.292893 2.707107 -1
v 1.133975 2.5 -1
v 2 3 -1
v 1.5 2.866025 -1
v 1.741181 2.965926 -1
v 1.034074 2.258819 -1
v 1 2 -1
v 2 2 -1
v 1.133975 2.5 1
v 2 3 1
v 1.034074 2.258819 1
v 1.292893 2.707107 1
v 1.5 2.866025 1
v 1.741181 2.965926 1
v 2 2 1
v 1 2 1
v 1 0 1
v 1.034074 -0.258819 1
v 1 0 -1
v 2 -1 1
v 2 -1 -1
v 1.741181 -0.9659258 1
v 1.741181 -0.9659258 -1
v 1.5 -0.8660254 1
v 1.5 -0.8660254 -1
v 1.292893 -0.7071068 1
v 1.292893 -0.7071068 -1
v 1.133975 -0.5 -1
v 2 0 -1
v 2 0 1
v 1.034074 -0.258819 -1
v 1.133975 -0.5 1
v -1 2 1
v -2 2 1
v -1.034074 2.258819 1
v -2 3 1
v -1.133975 2.5 1
v -1.292893 2.707107 1
v -1.5 2.866025 1
v -1.741181 2.965926 1
v -1 2 -1
v -1.741181 2.965926 -1
v -2 3 -1
v -1.5 2.866025 -1
v -1.292893 2.707107 -1
v -1.133975 2.5 -1
v -1.034074 2.258819 -1
v -2 2 -1
v -1.741181 -0.9659258 1
v -1.741181 -0.9659258 -1
v -2 -1 1
v -1.5 -0.8660254 1
v -1.5 -0.8660254 -1
v -1.292893 -0.7071068 1
v -1.292893 -0.7071068 -1
v -1.133975 -0.5 1
v -2 -1 -1
v -2 0 -1
v -2 0 1
v -1 0 -1
v -1 0 1
v -1.133975 -0.5 -1
v -1.034074 -0.258819 -1
v -1.034074 -0.258819 1
v -4.707107 2.707107 -1
v -4.866025 2.5 -1
v -4 3 -1
v -4.5 2.866025 -1
v -4.258819 2.965926 -1
v -4.965926 2.258819 -1
v -5 2 -1
v -4 2 -1
v -4.866025 2.5 1
v -4 3 1
v -4.965926 2.258819 1
v -4.707107 2.707107 1
v -4.5 2.866025 1
v -4.258819 2.965926 1
v -4 2 1
v -5 2 1
v -5 0 1
v -4.965926 -0.258819 1
v -5 0 -1
v -4 -1 1
v -4 -1 -1
v -4.258819 -0.9659258 1
v -4.258819 -0.9659258 -1
v -4.5 -0.8660254 1
v -4.5 -0.8660254 -1
v -4.707107 -0.7071068 1
v -4.707107 -0.7071068 -1
v -4.866025 -0.5 -1
v -4 0 -1
v -4 0 1
v -4.965926 -0.258819 -1
v -4.866025 -0.5 1
v 4 0 1.5
v 4 0 -1.5
v 2 0 1.5
v 2 0 -1.5
v 2 2 -1.5
v 2 2 1.5
v 4 2 -1.5
v 4 2 1.5
v -2 0 1.5
v -2 0 -1.5
v -4 0 1.5
v -4 0 -1.5
v -4 2 -1.5
v -4 2 1.5
v -2 2 -1.5
v -2 2 1.5

vn 0 0 1
vn 0.9914449 0.1305262 0
vn 0.9659259 0.2588191 0
vn 0.2588191 0.9659258 0
vn 0.1305262 0.9914449 0
vn 0.5 0.8660254 0
vn 0.7071068 0.7071068 0
vn 0.8660254 0.5 0
vn 0 0 -1
vn 0 -1 0
vn -1 0 0
vn 0.2588191 -0.9659259 0
vn 0.1305262 -0.9914449 0
vn 0.5 -0.8660254 0
vn 0.7071068 -0.7071068 0
vn 0.8660254 -0.5 0
vn 0 1 0
vn 0.9914449 -0.1305262 0
vn 0.9659259 -0.2588191 0
vn -0.2588191 0.9659259 0
vn -0.5 0.8660254 0
vn 1 0 0
vn -0.1305262 0.9914449 0
vn -0.7071068 0.7071068 0
vn -0.8660254 0.5 0
vn -0.9914449 0.1305262 0
vn -0.9659259 0.2588191 0
vn -0.9914449 -0.1305262 0
vn -0.9659259 -0.2588191 0
vn -0.1305262 -0.9914449 0
vn -0.2588191 -0.9659259 0
vn -0.5 -0.8660254 0
vn -0.7071068 -0.7071068 0
vn -0.8660254 -0.5 0

vt 0.703125 0.65625
vt 0.6875 0.65625
vt 0.7025926 0.6602941
vt 0.6875 0.671875
vt 0.7010316 0.6640625
vt 0.6985486 0.6672986
vt 0.6953125 0.6697816
vt 0.6915441 0.6713426
vt 0.8671875 0.65625
vt 0.8671875 0.6602941
vt 0.8984375 0.65625
vt 0.3084559 0.8671875
vt 0.3084559 0.8984375
vt 0.3125 0.8671875
vt 0.3046875 0.8671875
vt 0.3046875 0.8984375
vt 0.3014514 0.8671875
vt 0.3014514 0.8984375
vt 0.8984375 0.6672986
vt 0.8984375 0.6640625
vt 0.8671875 0.6672986
vt 0.3125 0.8984375
vt 0.046875 0.65625
vt 0.04740741 0.6602941
vt 0.0625 0.65625
vt 0.0625 0.671875
vt 0.04896835 0.6640625
vt 0.05145146 0.6672986
vt 0.0546875 0.6697816
vt 0.05845595 0.6713426
vt 0.296875 0.3671875
vt 0.296875 0.3984375
vt 0.3125 0.3671875
vt 0.3125 0.3984375
vt 0.3671875 0.65625
vt 0.3671875 0.671875
vt 0.3984375 0.65625
vt 0.3984375 0.671875
vt 0.8984375 0.6602941
vt 0.8671875 0.6640625
vt 0.3084559 0.3671875
vt 0.3084559 0.3984375
vt 0.3046875 0.3671875
vt 0.3046875 0.3984375
vt 0.3014514 0.3671875
vt 0.3014514 0.3984375
vt 0.8671875 0.6139514
vt 0.8671875 0.6171875
vt 0.8984375 0.6139514
vt 0.3671875 0.609375
vt 0.3671875 0.625
vt 0.3984375 0.609375
vt 0.3984375 0.625
vt 0.296875 0.8671875
vt 0.296875 0.8984375
vt 0.0625 0.609375
vt 0.05845595 0.6099074
vt 0.0625 0.625
vt 0.0546875 0.6114684
vt 0.05145146 0.6139514
vt 0.04896835 0.6171875
vt 0.04740741 0.6209559
vt 0.046875 0.625
vt 0.6875 0.609375
vt 0.6875 0.625
vt 0.6915441 0.6099074
vt 0.6953125 0.6114684
vt 0.6985486 0.6139514
vt 0.7010316 0.6171875
vt 0.7025926 0.6209559
vt 0.703125 0.625
vt 0.8984375 0.625
vt 0.8984375 0.6209559
vt 0.8671875 0.625
vt 0.8984375 0.6171875
vt 0.8671875 0.6209559
vt 0.1047985 0.6672986
vt 0.1072816 0.6640625
vt 0.09375 0.671875
vt 0.1015625 0.6697816
vt 0.09779405 0.6713426
vt 0.1088426 0.6602941
vt 0.109375 0.65625
vt 0.09375 0.65625
vt 0.6427184 0.6640625
vt 0.65625 0.671875
vt 0.6411574 0.6602941
vt 0.6452014 0.6672986
vt 0.6484375 0.6697816
vt 0.6522059 0.6713426
vt 0.65625 0.65625
vt 0.640625 0.65625
vt 0.3477941 0.8671875
vt 0.3477941 0.8984375
vt 0.3515625 0.8671875
vt 0.3515625 0.8984375
vt 0.8984375 0.671875
vt 0.8671875 0.671875
vt 0.34375 0.8671875
vt 0.34375 0.8984375
vt 0.34375 0.3671875
vt 0.34375 0.3984375
vt 0.359375 0.3671875
vt 0.359375 0.3984375
vt 0.3547986 0.8671875
vt 0.3547986 0.8984375
vt 0.3671875 0.6640625
vt 0.3671875 0.6672986
vt 0.3984375 0.6640625
vt 0.3984375 0.6672986
vt 0.3671875 0.6602941
vt 0.3984375 0.6602941
vt 0.3984375 0.6209559
vt 0.3477941 0.3671875
vt 0.3477941 0.3984375
vt 0.3515625 0.3671875
vt 0.3515625 0.3984375
vt 0.3547986 0.3671875
vt 0.3671875 0.6139514
vt 0.3671875 0.6171875
vt 0.3984375 0.6139514
vt 0.3547986 0.3984375
vt 0.359375 0.8671875
vt 0.359375 0.8984375
vt 0.8984375 0.609375
vt 0.8671875 0.609375
vt 0.09375 0.609375
vt 0.09375 0.625
vt 0.09779405 0.6099074
vt 0.1015625 0.6114684
vt 0.1047985 0.6139514
vt 0.1072816 0.6171875
vt 0.1088426 0.6209559
vt 0.109375 0.625
vt 0.65625 0.609375
vt 0.6522059 0.6099074
vt 0.65625 0.625
vt 0.6484375 0.6114684
vt 0.6452014 0.6139514
vt 0.6427184 0.6171875
vt 0.6411574 0.6209559
vt 0.640625 0.625
vt 0.3671875 0.6209559
vt 0.3984375 0.6171875
vt 0.609375 0.65625
vt 0.59375 0.65625
vt 0.6088426 0.6602941
vt 0.59375 0.671875
vt 0.6072816 0.6640625
vt 0.6047986 0.6672986
vt 0.6015625 0.6697816
vt 0.5977941 0.6713426
vt 0.4022059 0.8671875
vt 0.4022059 0.8984375
vt 0.40625 0.8671875
vt 0.3984375 0.8671875
vt 0.3984375 0.8984375
vt 0.3952014 0.8671875
vt 0.3952014 0.8984375
vt 0.40625 0.8984375
vt 0.140625 0.65625
vt 0.1411574 0.6602941
vt 0.15625 0.65625
vt 0.15625 0.671875
vt 0.1427183 0.6640625
vt 0.1452015 0.6672986
vt 0.1484375 0.6697816
vt 0.1522059 0.6713426
vt 0.390625 0.3671875
vt 0.390625 0.3984375
vt 0.40625 0.3671875
vt 0.40625 0.3984375
vt 0.4022059 0.3671875
vt 0.4022059 0.3984375
vt 0.3984375 0.3671875
vt 0.3984375 0.3984375
vt 0.3952014 0.3671875
vt 0.3952014 0.3984375
vt 0.390625 0.8671875
vt 0.390625 0.8984375
vt 0.15625 0.609375
vt 0.1522059 0.6099074
vt 0.15625 0.625
vt 0.1484375 0.6114684
vt 0.1452015 0.6139514
vt 0.1427183 0.6171875
vt 0.1411574 0.6209559
vt 0.140625 0.625
vt 0.59375 0.609375
vt 0.59375 0.625
vt 0.5977941 0.6099074
vt 0.6015625 0.6114684
vt 0.6047986 0.6139514
vt 0.6072816 0.6171875
vt 0.6088426 0.6209559
vt 0.609375 0.625
vt 0.1985485 0.6672986
vt 0.2010317 0.6640625
vt 0.1875 0.671875
vt 0.1953125 0.6697816
vt 0.1915441 0.6713426
vt 0.2025926 0.6602941
vt 0.203125 0.65625
vt 0.1875 0.65625
vt 0.5489684 0.6640625
vt 0.5625 0.671875
vt 0.5474074 0.6602941
vt 0.5514514 0.6672986
vt 0.5546875 0.6697816
vt 0.5584559 0.6713426
vt 0.5625 0.65625
vt 0.546875 0.65625
vt 0.4415441 0.8671875
vt 0.4415441 0.8984375
vt 0.4453125 0.8671875
vt 0.4453125 0.8984375
vt 0.4375 0.8671875
vt 0.4375 0.8984375
vt 0.4375 0.3671875
vt 0.4375 0.3984375
vt 0.453125 0.3671875
vt 0.453125 0.3984375
vt 0.4485486 0.8671875
vt 0.4485486 0.8984375
vt 0.4415441 0.3671875
vt 0.4415441 0.3984375
vt 0.4453125 0.3671875
vt 0.4453125 0.3984375
vt 0.4485486 0.3671875
vt 0.4485486 0.3984375
vt 0.453125 0.8671875
vt 0.453125 0.8984375
vt 0.1875 0.609375
vt 0.1875 0.625
vt 0.1915441 0.6099074
vt 0.1953125 0.6114684
vt 0.1985485 0.6139514
vt 0.2010317 0.6171875
vt 0.2025926 0.6209559
vt 0.203125 0.625
vt 0.5625 0.609375
vt 0.5584559 0.6099074
vt 0.5625 0.625
vt 0.5546875 0.6114684
vt 0.5514514 0.6139514
vt 0.5489684 0.6171875
vt 0.5474074 0.6209559
vt 0.546875 0.625
vt 0.3125 0.359375
vt 0.3125 0.40625
vt 0.34375 0.359375
vt 0.34375 0.40625
vt 0.359375 0.625
vt 0.359375 0.65625
vt 0.40625 0.625
vt 0.40625 0.65625
vt 0.90625 0.65625
vt 0.90625 0.625
vt 0.859375 0.65625
vt 0.859375 0.625
vt 0.3125 0.859375
vt 0.3125 0.90625
vt 0.34375 0.859375
vt 0.34375 0.90625
vt 0.40625 0.359375
vt 0.40625 0.40625
vt 0.4375 0.359375
vt 0.4375 0.40625
vt 0.40625 0.859375
vt 0.40625 0.90625
vt 0.4375 0.859375
vt 0.4375 0.90625

usemtl Mosquito_Eyes

f 3/3/1 2/2/1 1/1/1
f 2/2/1 3/3/1 4/4/1
f 4/4/1 3/3/1 5/5/1
f 4/4/1 5/5/1 6/6/1
f 4/4/1 6/6/1 7/7/1
f 4/4/1 7/7/1 8/8/1
f 9/11/2 3/10/3 1/9/2
f 11/14/5 8/13/4 10/12/4
f 10/12/4 7/16/6 12/15/6
f 12/15/6 6/18/7 13/17/7
f 6/21/7 14/20/8 13/19/7
f 6/18/7 12/15/6 7/16/6
f 7/16/6 10/12/4 8/13/4
f 8/13/4 11/14/5 4/22/5
f 16/25/9 15/24/9 9/23/9
f 15/24/9 16/25/9 11/26/9
f 15/24/9 11/26/9 14/27/9
f 14/27/9 11/26/9 13/28/9
f 13/28/9 11/26/9 12/29/9
f 12/29/9 11/26/9 10/30/9
f 2/33/10 9/32/10 1/31/10
f 9/32/10 2/33/10 16/34/10
f 2/37/11 11/36/11 16/35/11
f 11/36/11 2/37/11 4/38/11
f 3/10/3 9/11/2 15/39/3
f 15/39/3 5/40/8 3/10/3
f 14/20/8 6/21/7 5/40/8
f 5/40/8 15/39/3 14/20/8
f 19/33/13 18/42/12 17/41/12
f 17/41/12 21/44/14 20/43/14
f 20/43/14 23/46/15 22/45/15
f 23/49/15 24/48/16 22/47/15
f 23/46/15 20/43/14 21/44/14
f 21/44/14 17/41/12 18/42/12
f 18/42/12 19/33/13 25/34/13
f 19/52/11 26/51/11 25/50/11
f 26/51/11 19/52/11 27/53/11
f 26/14/17 29/55/17 28/54/17
f 29/55/17 26/14/17 27/22/17
f 26/58/9 18/57/9 25/56/9
f 18/57/9 26/58/9 21/59/9
f 21/59/9 26/58/9 23/60/9
f 23/60/9 26/58/9 30/61/9
f 30/61/9 26/58/9 31/62/9
f 31/62/9 26/58/9 28/63/9
f 17/66/1 27/65/1 19/64/1
f 27/65/1 17/66/1 20/67/1
f 27/65/1 20/67/1 22/68/1
f 27/65/1 22/68/1 24/69/1
f 27/65/1 24/69/1 32/70/1
f 27/65/1 32/70/1 29/71/1
f 29/74/18 31/73/19 28/72/18
f 32/76/19 30/75/16 31/73/19
f 31/73/19 29/74/18 32/76/19
f 30/75/16 32/76/19 24/48/16
f 24/48/16 23/49/15 30/75/16
f 35/79/9 34/78/9 33/77/9
f 35/79/9 33/77/9 36/80/9
f 35/79/9 36/80/9 37/81/9
f 35/79/9 38/82/9 34/78/9
f 38/82/9 40/84/9 39/83/9
f 40/84/9 38/82/9 35/79/9
f 43/87/1 42/86/1 41/85/1
f 41/85/1 42/86/1 44/88/1
f 44/88/1 42/86/1 45/89/1
f 45/89/1 42/86/1 46/90/1
f 42/86/1 48/92/1 47/91/1
f 48/92/1 42/86/1 43/87/1
f 36/95/21 46/94/20 37/93/20
f 46/94/20 36/95/21 45/96/21
f 42/98/22 40/11/22 35/97/22
f 40/11/22 42/98/22 47/9/22
f 37/93/20 42/100/23 35/99/23
f 42/100/23 37/93/20 46/94/20
f 48/103/10 40/102/10 47/101/10
f 40/102/10 48/103/10 39/104/10
f 33/105/24 45/96/21 36/95/21
f 45/96/21 33/105/24 44/106/24
f 41/109/25 33/108/24 34/107/25
f 33/108/24 41/109/25 44/110/24
f 48/37/26 38/111/27 39/35/26
f 38/111/27 48/37/26 43/112/27
f 43/112/27 34/107/25 38/111/27
f 34/107/25 43/112/27 41/109/25
f 51/51/28 50/113/29 49/53/28
f 54/114/31 53/102/30 52/101/30
f 56/116/32 55/115/31 54/114/31
f 58/118/33 57/117/32 56/116/32
f 58/121/33 60/120/34 59/119/33
f 57/117/32 58/118/33 59/122/33
f 55/115/31 56/116/32 57/117/32
f 53/102/30 54/114/31 55/115/31
f 51/123/17 62/100/17 61/99/17
f 62/100/17 51/123/17 49/124/17
f 62/74/22 53/125/22 61/72/22
f 53/125/22 62/74/22 52/126/22
f 55/129/9 61/128/9 53/127/9
f 61/128/9 55/129/9 57/130/9
f 61/128/9 57/130/9 59/131/9
f 61/128/9 59/131/9 60/132/9
f 61/128/9 60/132/9 63/133/9
f 61/128/9 63/133/9 51/134/9
f 62/137/1 54/136/1 52/135/1
f 54/136/1 62/137/1 56/138/1
f 56/138/1 62/137/1 58/139/1
f 58/139/1 62/137/1 64/140/1
f 64/140/1 62/137/1 50/141/1
f 50/141/1 62/137/1 49/142/1
f 64/144/34 63/143/29 60/120/34
f 60/120/34 58/121/33 64/144/34
f 63/143/29 64/144/34 50/113/29
f 50/113/29 51/51/28 63/143/29
f 67/147/1 66/146/1 65/145/1
f 66/146/1 67/147/1 68/148/1
f 68/148/1 67/147/1 69/149/1
f 68/148/1 69/149/1 70/150/1
f 68/148/1 70/150/1 71/151/1
f 68/148/1 71/151/1 72/152/1
f 73/11/2 67/10/3 65/9/2
f 75/155/5 72/154/4 74/153/4
f 74/153/4 71/157/6 76/156/6
f 76/156/6 70/159/7 77/158/7
f 70/21/7 78/20/8 77/19/7
f 70/159/7 76/156/6 71/157/6
f 71/157/6 74/153/4 72/154/4
f 72/154/4 75/155/5 68/160/5
f 80/163/9 79/162/9 73/161/9
f 79/162/9 80/163/9 75/164/9
f 79/162/9 75/164/9 78/165/9
f 78/165/9 75/164/9 77/166/9
f 77/166/9 75/164/9 76/167/9
f 76/167/9 75/164/9 74/168/9
f 66/171/10 73/170/10 65/169/10
f 73/170/10 66/171/10 80/172/10
f 66/37/11 75/36/11 80/35/11
f 75/36/11 66/37/11 68/38/11
f 67/10/3 73/11/2 79/39/3
f 79/39/3 69/40/8 67/10/3
f 78/20/8 70/21/7 69/40/8
f 69/40/8 79/39/3 78/20/8
f 83/171/13 82/174/12 81/173/12
f 81/173/12 85/176/14 84/175/14
f 84/175/14 87/178/15 86/177/15
f 87/49/15 88/48/16 86/47/15
f 87/178/15 84/175/14 85/176/14
f 85/176/14 81/173/12 82/174/12
f 82/174/12 83/171/13 89/172/13
f 83/52/11 90/51/11 89/50/11
f 90/51/11 83/52/11 91/53/11
f 90/155/17 93/180/17 92/179/17
f 93/180/17 90/155/17 91/160/17
f 90/183/9 82/182/9 89/181/9
f 82/182/9 90/183/9 85/184/9
f 85/184/9 90/183/9 87/185/9
f 87/185/9 90/183/9 94/186/9
f 94/186/9 90/183/9 95/187/9
f 95/187/9 90/183/9 92/188/9
f 81/191/1 91/190/1 83/189/1
f 91/190/1 81/191/1 84/192/1
f 91/190/1 84/192/1 86/193/1
f 91/190/1 86/193/1 88/194/1
f 91/190/1 88/194/1 96/195/1
f 91/190/1 96/195/1 93/196/1
f 93/74/18 95/73/19 92/72/18
f 96/76/19 94/75/16 95/73/19
f 95/73/19 93/74/18 96/76/19
f 94/75/16 96/76/19 88/48/16
f 88/48/16 87/49/15 94/75/16
f 99/199/9 98/198/9 97/197/9
f 99/199/9 97/197/9 100/200/9
f 99/199/9 100/200/9 101/201/9
f 99/199/9 102/202/9 98/198/9
f 102/202/9 104/204/9 103/203/9
f 104/204/9 102/202/9 99/199/9
f 107/207/1 106/206/1 105/205/1
f 105/205/1 106/206/1 108/208/1
f 108/208/1 106/206/1 109/209/1
f 109/209/1 106/206/1 110/210/1
f 106/206/1 112/212/1 111/211/1
f 112/212/1 106/206/1 107/207/1
f 100/215/21 110/214/20 101/213/20
f 110/214/20 100/215/21 109/216/21
f 106/98/22 104/11/22 99/97/22
f 104/11/22 106/98/22 111/9/22
f 101/213/20 106/218/23 99/217/23
f 106/218/23 101/213/20 110/214/20
f 112/221/10 104/220/10 111/219/10
f 104/220/10 112/221/10 103/222/10
f 97/223/24 109/216/21 100/215/21
f 109/216/21 97/223/24 108/224/24
f 105/109/25 97/108/24 98/107/25
f 97/108/24 105/109/25 108/110/24
f 112/37/26 102/111/27 103/35/26
f 102/111/27 112/37/26 107/112/27
f 107/112/27 98/107/25 102/111/27
f 98/107/25 107/112/27 105/109/25
f 115/51/28 114/113/29 113/53/28
f 118/225/31 117/220/30 116/219/30
f 120/227/32 119/226/31 118/225/31
f 122/229/33 121/228/32 120/227/32
f 122/121/33 124/120/34 123/119/33
f 121/228/32 122/229/33 123/230/33
f 119/226/31 120/227/32 121/228/32
f 117/220/30 118/225/31 119/226/31
f 115/231/17 126/218/17 125/217/17
f 126/218/17 115/231/17 113/232/17
f 126/74/22 117/125/22 125/72/22
f 117/125/22 126/74/22 116/126/22
f 119/235/9 125/234/9 117/233/9
f 125/234/9 119/235/9 121/236/9
f 125/234/9 121/236/9 123/237/9
f 125/234/9 123/237/9 124/238/9
f 125/234/9 124/238/9 127/239/9
f 125/234/9 127/239/9 115/240/9
f 126/243/1 118/242/1 116/241/1
f 118/242/1 126/243/1 120/244/1
f 120/244/1 126/243/1 122/245/1
f 122/245/1 126/243/1 128/246/1
f 128/246/1 126/243/1 114/247/1
f 114/247/1 126/243/1 113/248/1
f 128/144/34 127/143/29 124/120/34
f 124/120/34 122/121/33 128/144/34
f 127/143/29 128/144/34 114/113/29
f 114/113/29 115/51/28 127/143/29
f 47/101/10 16/34/10 2/33/10
f 16/34/10 47/101/10 40/102/10
f 47/37/11 35/36/11 40/35/11
f 35/36/11 47/37/11 42/38/11
f 35/79/9 16/25/9 40/84/9
f 16/25/9 35/79/9 11/26/9
f 4/4/1 47/91/1 2/2/1
f 47/91/1 4/4/1 42/86/1
f 4/98/22 16/11/22 11/97/22
f 16/11/22 4/98/22 2/9/22
f 35/99/17 4/22/17 11/14/17
f 4/22/17 35/99/17 42/100/17
f 111/219/10 80/172/10 66/171/10
f 80/172/10 111/219/10 104/220/10
f 111/37/11 99/36/11 104/35/11
f 99/36/11 111/37/11 106/38/11
f 99/199/9 80/163/9 104/204/9
f 80/163/9 99/199/9 75/164/9
f 68/148/1 111/211/1 66/146/1
f 111/211/1 68/148/1 106/206/1
f 68/98/22 80/11/22 75/97/22
f 80/11/22 68/98/22 66/9/22
f 99/217/17 68/160/17 75/155/17
f 68/160/17 99/217/17 106/218/17
f 27/33/10 28/32/10 29/31/10
f 28/32/10 27/33/10 26/34/10
f 27/53/11 16/35/11 26/51/11
f 16/35/11 27/53/11 2/37/11
f 16/25/9 28/63/9 26/58/9
f 28/63/9 16/25/9 9/23/9
f 1/1/1 27/65/1 29/71/1
f 27/65/1 1/1/1 2/2/1
f 1/9/22 28/72/22 9/11/22
f 28/72/22 1/9/22 29/74/22
f 16/14/17 1/55/17 9/54/17
f 1/55/17 16/14/17 2/22/17
f 131/251/10 130/250/10 129/249/10
f 130/250/10 131/251/10 132/252/10
f 131/255/11 133/254/11 132/253/11
f 133/254/11 131/255/11 134/256/11
f 133/84/9 130/58/9 132/128/9
f 130/58/9 133/84/9 135/25/9
f 136/2/1 131/137/1 129/65/1
f 131/137/1 136/2/1 134/91/1
f 136/259/22 130/258/22 135/257/22
f 130/258/22 136/259/22 129/260/22
f 133/263/17 136/262/17 135/261/17
f 136/262/17 133/263/17 134/264/17
f 49/103/10 61/102/10 62/101/10
f 61/102/10 49/103/10 51/104/10
f 49/53/11 39/35/11 51/51/11
f 39/35/11 49/53/11 48/37/11
f 39/83/9 61/128/9 51/134/9
f 61/128/9 39/83/9 40/84/9
f 47/91/1 49/142/1 62/137/1
f 49/142/1 47/91/1 48/92/1
f 47/9/22 61/72/22 40/11/22
f 61/72/22 47/9/22 62/74/22
f 39/123/17 47/100/17 40/99/17
f 47/100/17 39/123/17 48/124/17
f 91/171/10 92/170/10 93/169/10
f 92/170/10 91/171/10 90/172/10
f 91/53/11 80/35/11 90/51/11
f 80/35/11 91/53/11 66/37/11
f 80/163/9 92/188/9 90/183/9
f 92/188/9 80/163/9 73/161/9
f 65/145/1 91/190/1 93/196/1
f 91/190/1 65/145/1 66/146/1
f 65/9/22 92/72/22 73/11/22
f 92/72/22 65/9/22 93/74/22
f 80/155/17 65/180/17 73/179/17
f 65/180/17 80/155/17 66/160/17
f 139/267/10 138/266/10 137/265/10
f 138/266/10 139/267/10 140/268/10
f 139/255/11 141/254/11 140/253/11
f 141/254/11 139/255/11 142/256/11
f 141/204/9 138/183/9 140/234/9
f 138/183/9 141/204/9 143/163/9
f 144/146/1 139/243/1 137/190/1
f 139/243/1 144/146/1 142/211/1
f 144/259/22 138/258/22 143/257/22
f 138/258/22 144/259/22 137/260/22
f 141/271/17 144/270/17 143/269/17
f 144/270/17 141/271/17 142/272/17
f 113/221/10 125/220/10 126/219/10
f 125/220/10 113/221/10 115/222/10
f 113/53/11 103/35/11 115/51/11
f 103/35/11 113/53/11 112/37/11
f 103/203/9 125/234/9 115/240/9
f 125/234/9 103/203/9 104/204/9
f 111/211/1 113/248/1 126/243/1
f 113/248/1 111/211/1 112/212/1
f 111/9/22 125/72/22 104/11/22
f 125/72/22 111/9/22 126/74/22
f 103/231/17 111/218/17 104/217/17
f 111/218/17 103/231/17 112/232/17
f 52/101/10 25/34/10 19/33/10
f 25/34/10 52/101/10 53/102/10
f 52/52/11 61/51/11 53/50/11
f 61/51/11 52/52/11 62/53/11
f 61/128/9 25/56/9 53/127/9
f 25/56/9 61/128/9 26/58/9
f 27/65/1 52/135/1 19/64/1
f 52/135/1 27/65/1 62/137/1
f 27/74/22 25/125/22 26/72/22
f 25/125/22 27/74/22 19/126/22
f 61/99/17 27/22/17 26/14/17
f 27/22/17 61/99/17 62/100/17
f 116/219/10 89/172/10 83/171/10
f 89/172/10 116/219/10 117/220/10
f 116/52/11 125/51/11 117/50/11
f 125/51/11 116/52/11 126/53/11
f 125/234/9 89/181/9 117/233/9
f 89/181/9 125/234/9 90/183/9
f 91/190/1 116/241/1 83/189/1
f 116/241/1 91/190/1 126/243/1
f 91/74/22 89/125/22 90/72/22
f 89/125/22 91/74/22 83/126/22
f 125/217/17 91/160/17 90/155/17
f 91/160/17 125/217/17 126/218/17

