# Created by Kenney (www.kenney.nl)

mtllib Mosquito_Sucker.mtl

v -5 5 0.5
v -5 5 -0.5
v -6 5 0.5
v -6 5 -0.5
v -6 7 -0.5
v -6 7 0.5
v -5 7 -0.5
v -5 7 0.5
v -6 6 0.5
v -6 6 -0.5
v -7 6 0.5
v -7 6 -0.5
v -7 7 -0.5
v -7 7 0.5
v -5 6 0.5
v -5 6 -0.5
v -4 4 0.5
v -4 4 -0.5
v -5 4 0.5
v -5 4 -0.5
v -4 6 -0.5
v -4 6 0.5
v -3 3 0.5
v -3 3 -0.5
v -4 3 0.5
v -4 3 -0.5
v -4 5 -0.5
v -4 5 0.5
v -3 5 -0.5
v -3 5 0.5
v -2 2 0.5
v -2 2 -0.5
v -3 2 0.5
v -3 2 -0.5
v -3 4 -0.5
v -3 4 0.5
v -2 4 -0.5
v -2 4 0.5
v -1 0 0.5
v -1 0 -0.5
v -2 0 0.5
v -2 0 -0.5
v -2 3 -0.5
v -2 3 0.5
v -1 3 -0.5
v -1 3 0.5
v 0 -2 0.5
v 0 -2 -0.5
v -1 -2 0.5
v -1 -2 -0.5
v -1 1 -0.5
v -1 1 0.5
v 0 1 -0.5
v 0 1 0.5
v 1 -5 0.5
v 1 -5 -0.5
v 0 -5 0.5
v 0 -5 -0.5
v 0 -1 -0.5
v 0 -1 0.5
v 1 -1 -0.5
v 1 -1 0.5

vn 0 -1 0
vn -1 0 0
vn 0 0 -1
vn 0 0 1
vn 1 0 0
vn 0 1 0

vt 0.453125 0.375
vt 0.453125 0.390625
vt 0.46875 0.375
vt 0.46875 0.390625
vt 0.375 0.703125
vt 0.375 0.734375
vt 0.390625 0.703125
vt 0.390625 0.734375
vt 0.21875 0.703125
vt 0.203125 0.703125
vt 0.21875 0.734375
vt 0.203125 0.734375
vt 0.546875 0.703125
vt 0.53125 0.703125
vt 0.546875 0.734375
vt 0.53125 0.734375
vt 0.890625 0.734375
vt 0.890625 0.703125
vt 0.875 0.734375
vt 0.875 0.703125
vt 0.453125 0.875
vt 0.453125 0.890625
vt 0.46875 0.875
vt 0.46875 0.890625
vt 0.484375 0.375
vt 0.484375 0.390625
vt 0.375 0.71875
vt 0.390625 0.71875
vt 0.234375 0.71875
vt 0.21875 0.71875
vt 0.234375 0.734375
vt 0.53125 0.71875
vt 0.515625 0.71875
vt 0.515625 0.734375
vt 0.890625 0.71875
vt 0.875 0.71875
vt 0.484375 0.875
vt 0.484375 0.890625
vt 0.203125 0.71875
vt 0.546875 0.71875
vt 0.4375 0.375
vt 0.4375 0.390625
vt 0.375 0.6875
vt 0.390625 0.6875
vt 0.203125 0.6875
vt 0.1875 0.6875
vt 0.1875 0.71875
vt 0.5625 0.6875
vt 0.546875 0.6875
vt 0.5625 0.71875
vt 0.890625 0.6875
vt 0.875 0.6875
vt 0.4375 0.875
vt 0.4375 0.890625
vt 0.421875 0.375
vt 0.421875 0.390625
vt 0.375 0.671875
vt 0.390625 0.671875
vt 0.1875 0.671875
vt 0.171875 0.671875
vt 0.1875 0.703125
vt 0.171875 0.703125
vt 0.578125 0.671875
vt 0.5625 0.671875
vt 0.578125 0.703125
vt 0.5625 0.703125
vt 0.890625 0.671875
vt 0.875 0.671875
vt 0.421875 0.875
vt 0.421875 0.890625
vt 0.40625 0.375
vt 0.40625 0.390625
vt 0.375 0.65625
vt 0.390625 0.65625
vt 0.171875 0.65625
vt 0.15625 0.65625
vt 0.171875 0.6875
vt 0.15625 0.6875
vt 0.59375 0.65625
vt 0.578125 0.65625
vt 0.59375 0.6875
vt 0.578125 0.6875
vt 0.890625 0.65625
vt 0.875 0.65625
vt 0.40625 0.875
vt 0.40625 0.890625
vt 0.390625 0.375
vt 0.390625 0.390625
vt 0.375 0.625
vt 0.390625 0.625
vt 0.15625 0.625
vt 0.140625 0.625
vt 0.15625 0.671875
vt 0.140625 0.671875
vt 0.609375 0.625
vt 0.59375 0.625
vt 0.609375 0.671875
vt 0.59375 0.671875
vt 0.890625 0.625
vt 0.875 0.625
vt 0.390625 0.875
vt 0.390625 0.890625
vt 0.375 0.375
vt 0.375 0.390625
vt 0.375 0.59375
vt 0.375 0.640625
vt 0.390625 0.59375
vt 0.390625 0.640625
vt 0.140625 0.59375
vt 0.125 0.59375
vt 0.140625 0.640625
vt 0.125 0.640625
vt 0.625 0.59375
vt 0.609375 0.59375
vt 0.625 0.640625
vt 0.609375 0.640625
vt 0.890625 0.640625
vt 0.890625 0.59375
vt 0.875 0.640625
vt 0.875 0.59375
vt 0.375 0.875
vt 0.375 0.890625
vt 0.359375 0.375
vt 0.359375 0.390625
vt 0.375 0.546875
vt 0.375 0.609375
vt 0.390625 0.546875
vt 0.390625 0.609375
vt 0.125 0.546875
vt 0.109375 0.546875
vt 0.125 0.609375
vt 0.109375 0.609375
vt 0.640625 0.546875
vt 0.625 0.546875
vt 0.640625 0.609375
vt 0.625 0.609375
vt 0.890625 0.609375
vt 0.890625 0.546875
vt 0.875 0.609375
vt 0.875 0.546875
vt 0.359375 0.875
vt 0.359375 0.890625

usemtl Mosquito_Sucker

f 3/3/1 2/2/1 1/1/1
f 2/2/1 3/3/1 4/4/1
f 3/7/2 5/6/2 4/5/2
f 5/6/2 3/7/2 6/8/2
f 5/11/3 2/10/3 4/9/3
f 2/10/3 5/11/3 7/12/3
f 8/15/4 3/14/4 1/13/4
f 3/14/4 8/15/4 6/16/4
f 8/19/5 2/18/5 7/17/5
f 2/18/5 8/19/5 1/20/5
f 5/23/6 8/22/6 7/21/6
f 8/22/6 5/23/6 6/24/6
f 11/25/1 10/4/1 9/3/1
f 10/4/1 11/25/1 12/26/1
f 11/28/2 13/6/2 12/27/2
f 13/6/2 11/28/2 14/8/2
f 13/31/3 10/30/3 12/29/3
f 10/30/3 13/31/3 5/11/3
f 6/16/4 11/33/4 9/32/4
f 11/33/4 6/16/4 14/34/4
f 6/19/5 10/35/5 5/17/5
f 10/35/5 6/19/5 9/36/5
f 13/37/6 6/24/6 5/23/6
f 6/24/6 13/37/6 14/38/6
f 11/25/1 16/2/1 15/1/1
f 16/2/1 11/25/1 12/26/1
f 11/28/2 13/6/2 12/27/2
f 13/6/2 11/28/2 14/8/2
f 13/31/3 16/39/3 12/29/3
f 16/39/3 13/31/3 7/12/3
f 8/15/4 11/33/4 15/40/4
f 11/33/4 8/15/4 14/34/4
f 8/19/5 16/35/5 7/17/5
f 16/35/5 8/19/5 15/36/5
f 13/37/6 8/22/6 7/21/6
f 8/22/6 13/37/6 14/38/6
f 19/1/1 18/42/1 17/41/1
f 18/42/1 19/1/1 20/2/1
f 19/44/2 16/27/2 20/43/2
f 16/27/2 19/44/2 15/28/2
f 16/39/3 18/46/3 20/45/3
f 18/46/3 16/39/3 21/47/3
f 22/50/4 19/49/4 17/48/4
f 19/49/4 22/50/4 15/40/4
f 22/36/5 18/51/5 21/35/5
f 18/51/5 22/36/5 17/52/5
f 16/21/6 22/54/6 21/53/6
f 22/54/6 16/21/6 15/22/6
f 25/41/1 24/56/1 23/55/1
f 24/56/1 25/41/1 26/42/1
f 25/58/2 27/5/2 26/57/2
f 27/5/2 25/58/2 28/7/2
f 27/61/3 24/60/3 26/59/3
f 24/60/3 27/61/3 29/62/3
f 30/65/4 25/64/4 23/63/4
f 25/64/4 30/65/4 28/66/4
f 30/20/5 24/67/5 29/18/5
f 24/67/5 30/20/5 23/68/5
f 27/53/6 30/70/6 29/69/6
f 30/70/6 27/53/6 28/54/6
f 33/55/1 32/72/1 31/71/1
f 32/72/1 33/55/1 34/56/1
f 33/74/2 35/43/2 34/73/2
f 35/43/2 33/74/2 36/44/2
f 35/77/3 32/76/3 34/75/3
f 32/76/3 35/77/3 37/78/3
f 38/81/4 33/80/4 31/79/4
f 33/80/4 38/81/4 36/82/4
f 38/52/5 32/83/5 37/51/5
f 32/83/5 38/52/5 31/84/5
f 35/69/6 38/86/6 37/85/6
f 38/86/6 35/69/6 36/70/6
f 41/71/1 40/88/1 39/87/1
f 40/88/1 41/71/1 42/72/1
f 41/90/2 43/57/2 42/89/2
f 43/57/2 41/90/2 44/58/2
f 43/93/3 40/92/3 42/91/3
f 40/92/3 43/93/3 45/94/3
f 46/97/4 41/96/4 39/95/4
f 41/96/4 46/97/4 44/98/4
f 46/68/5 40/99/5 45/67/5
f 40/99/5 46/68/5 39/100/5
f 43/85/6 46/102/6 45/101/6
f 46/102/6 43/85/6 44/86/6
f 49/87/1 48/104/1 47/103/1
f 48/104/1 49/87/1 50/88/1
f 49/107/2 51/106/2 50/105/2
f 51/106/2 49/107/2 52/108/2
f 51/111/3 48/110/3 50/109/3
f 48/110/3 51/111/3 53/112/3
f 54/115/4 49/114/4 47/113/4
f 49/114/4 54/115/4 52/116/4
f 54/119/5 48/118/5 53/117/5
f 48/118/5 54/119/5 47/120/5
f 51/101/6 54/122/6 53/121/6
f 54/122/6 51/101/6 52/102/6
f 57/103/1 56/124/1 55/123/1
f 56/124/1 57/103/1 58/104/1
f 57/127/2 59/126/2 58/125/2
f 59/126/2 57/127/2 60/128/2
f 59/131/3 56/130/3 58/129/3
f 56/130/3 59/131/3 61/132/3
f 62/135/4 57/134/4 55/133/4
f 57/134/4 62/135/4 60/136/4
f 62/139/5 56/138/5 61/137/5
f 56/138/5 62/139/5 55/140/5
f 59/121/6 62/142/6 61/141/6
f 62/142/6 59/121/6 60/122/6

