# Created by Kenney (www.kenney.nl)

mtllib Mosquito_Body.mtl

v 2 8 1.5
v 1 8 1.5
v 1.965926 8.258819 1.5
v 1 9 1.5
v 1.866025 8.5 1.5
v 1.707107 8.707107 1.5
v 1.5 8.866025 1.5
v 1.258819 8.965926 1.5
v 2 8 -1.5
v 1.258819 8.965926 -1.5
v 1 9 -1.5
v 1.5 8.866025 -1.5
v 1.707107 8.707107 -1.5
v 1.866025 8.5 -1.5
v 1.965926 8.258819 -1.5
v 1 8 -1.5
v 1.258819 -6.965926 1.5
v 1.258819 -6.965926 -1.5
v 1 -7 1.5
v 1.5 -6.866025 1.5
v 1.5 -6.866025 -1.5
v 1.707107 -6.707107 1.5
v 1.707107 -6.707107 -1.5
v 1.866025 -6.5 1.5
v 1 -7 -1.5
v 1 -6 -1.5
v 1 -6 1.5
v 2 -6 -1.5
v 2 -6 1.5
v 1.866025 -6.5 -1.5
v 1.965926 -6.258819 -1.5
v 1.965926 -6.258819 1.5
v -1.707107 8.707107 -1.5
v -1.866025 8.5 -1.5
v -1 9 -1.5
v -1.5 8.866025 -1.5
v -1.258819 8.965926 -1.5
v -1.965926 8.258819 -1.5
v -2 8 -1.5
v -1 8 -1.5
v -1.866025 8.5 1.5
v -1 9 1.5
v -1.965926 8.258819 1.5
v -1.707107 8.707107 1.5
v -1.5 8.866025 1.5
v -1.258819 8.965926 1.5
v -1 8 1.5
v -2 8 1.5
v -2 -6 1.5
v -1.965926 -6.258819 1.5
v -2 -6 -1.5
v -1 -7 1.5
v -1 -7 -1.5
v -1.258819 -6.965926 1.5
v -1.258819 -6.965926 -1.5
v -1.5 -6.866025 1.5
v -1.5 -6.866025 -1.5
v -1.707107 -6.707107 1.5
v -1.707107 -6.707107 -1.5
v -1.866025 -6.5 -1.5
v -1 -6 -1.5
v -1 -6 1.5
v -1.965926 -6.258819 -1.5
v -1.866025 -6.5 1.5

vn 0 0 1
vn 0.9914449 0.1305262 0
vn 0.9659259 0.2588191 0
vn 0.2588191 0.9659258 0
vn 0.1305262 0.9914449 0
vn 0.5 0.8660254 0
vn 0.7071068 0.7071068 0
vn 0.8660254 0.5 0
vn 0 0 -1
vn 0 -1 0
vn -1 0 0
vn 0.2588191 -0.9659259 0
vn 0.1305262 -0.9914449 0
vn 0.5 -0.8660254 0
vn 0.7071068 -0.7071068 0
vn 0.8660254 -0.5 0
vn 0 1 0
vn 0.9914449 -0.1305262 0
vn 0.9659259 -0.2588191 0
vn -0.2588191 0.9659259 0
vn -0.5 0.8660254 0
vn 1 0 0
vn -0.1305262 0.9914449 0
vn -0.7071068 0.7071068 0
vn -0.8660254 0.5 0
vn -0.9914449 0.1305262 0
vn -0.9659259 0.2588191 0
vn -0.9914449 -0.1305262 0
vn -0.9659259 -0.2588191 0
vn -0.1305262 -0.9914449 0
vn -0.2588191 -0.9659259 0
vn -0.5 -0.8660254 0
vn -0.7071068 -0.7071068 0
vn -0.8660254 -0.5 0

vt 0.65625 0.75
vt 0.640625 0.75
vt 0.6557176 0.7540441
vt 0.640625 0.765625
vt 0.6541566 0.7578125
vt 0.6516736 0.7610486
vt 0.6484375 0.7635316
vt 0.6446691 0.7650926
vt 0.859375 0.75
vt 0.859375 0.7540441
vt 0.90625 0.75
vt 0.3553309 0.859375
vt 0.3553309 0.90625
vt 0.359375 0.859375
vt 0.3515625 0.859375
vt 0.3515625 0.90625
vt 0.3483264 0.859375
vt 0.3483264 0.90625
vt 0.90625 0.7610486
vt 0.90625 0.7578125
vt 0.859375 0.7610486
vt 0.359375 0.90625
vt 0.09375 0.75
vt 0.09428241 0.7540441
vt 0.109375 0.75
vt 0.109375 0.765625
vt 0.09584335 0.7578125
vt 0.09832646 0.7610486
vt 0.1015625 0.7635316
vt 0.105331 0.7650926
vt 0.34375 0.359375
vt 0.34375 0.40625
vt 0.359375 0.359375
vt 0.359375 0.40625
vt 0.359375 0.75
vt 0.359375 0.765625
vt 0.40625 0.75
vt 0.40625 0.765625
vt 0.90625 0.7540441
vt 0.859375 0.7578125
vt 0.3553309 0.359375
vt 0.3553309 0.40625
vt 0.3515625 0.359375
vt 0.3515625 0.40625
vt 0.3483264 0.359375
vt 0.3483264 0.40625
vt 0.859375 0.5202014
vt 0.859375 0.5234375
vt 0.90625 0.5202014
vt 0.359375 0.515625
vt 0.359375 0.53125
vt 0.40625 0.515625
vt 0.40625 0.53125
vt 0.34375 0.859375
vt 0.34375 0.90625
vt 0.109375 0.515625
vt 0.105331 0.5161574
vt 0.109375 0.53125
vt 0.1015625 0.5177184
vt 0.09832646 0.5202014
vt 0.09584335 0.5234375
vt 0.09428241 0.5272059
vt 0.09375 0.53125
vt 0.640625 0.515625
vt 0.640625 0.53125
vt 0.6446691 0.5161574
vt 0.6484375 0.5177184
vt 0.6516736 0.5202014
vt 0.6541566 0.5234375
vt 0.6557176 0.5272059
vt 0.65625 0.53125
vt 0.90625 0.53125
vt 0.90625 0.5272059
vt 0.859375 0.53125
vt 0.90625 0.5234375
vt 0.859375 0.5272059
vt 0.1516735 0.7610486
vt 0.1541567 0.7578125
vt 0.140625 0.765625
vt 0.1484375 0.7635316
vt 0.1446691 0.7650926
vt 0.1557176 0.7540441
vt 0.15625 0.75
vt 0.140625 0.75
vt 0.5958434 0.7578125
vt 0.609375 0.765625
vt 0.5942824 0.7540441
vt 0.5983264 0.7610486
vt 0.6015625 0.7635316
vt 0.6053309 0.7650926
vt 0.609375 0.75
vt 0.59375 0.75
vt 0.3946691 0.859375
vt 0.3946691 0.90625
vt 0.3984375 0.859375
vt 0.3984375 0.90625
vt 0.90625 0.765625
vt 0.859375 0.765625
vt 0.390625 0.859375
vt 0.390625 0.90625
vt 0.390625 0.359375
vt 0.390625 0.40625
vt 0.40625 0.359375
vt 0.40625 0.40625
vt 0.4016736 0.859375
vt 0.4016736 0.90625
vt 0.359375 0.7578125
vt 0.359375 0.7610486
vt 0.40625 0.7578125
vt 0.40625 0.7610486
vt 0.359375 0.7540441
vt 0.40625 0.7540441
vt 0.40625 0.5272059
vt 0.3946691 0.359375
vt 0.3946691 0.40625
vt 0.3984375 0.359375
vt 0.3984375 0.40625
vt 0.4016736 0.359375
vt 0.359375 0.5202014
vt 0.359375 0.5234375
vt 0.40625 0.5202014
vt 0.4016736 0.40625
vt 0.40625 0.859375
vt 0.40625 0.90625
vt 0.90625 0.515625
vt 0.859375 0.515625
vt 0.140625 0.515625
vt 0.140625 0.53125
vt 0.1446691 0.5161574
vt 0.1484375 0.5177184
vt 0.1516735 0.5202014
vt 0.1541567 0.5234375
vt 0.1557176 0.5272059
vt 0.15625 0.53125
vt 0.609375 0.515625
vt 0.6053309 0.5161574
vt 0.609375 0.53125
vt 0.6015625 0.5177184
vt 0.5983264 0.5202014
vt 0.5958434 0.5234375
vt 0.5942824 0.5272059
vt 0.59375 0.53125
vt 0.359375 0.5272059
vt 0.40625 0.5234375

usemtl Mosquito_Body

f 3/3/1 2/2/1 1/1/1
f 2/2/1 3/3/1 4/4/1
f 4/4/1 3/3/1 5/5/1
f 4/4/1 5/5/1 6/6/1
f 4/4/1 6/6/1 7/7/1
f 4/4/1 7/7/1 8/8/1
f 9/11/2 3/10/3 1/9/2
f 11/14/5 8/13/4 10/12/4
f 10/12/4 7/16/6 12/15/6
f 12/15/6 6/18/7 13/17/7
f 6/21/7 14/20/8 13/19/7
f 6/18/7 12/15/6 7/16/6
f 7/16/6 10/12/4 8/13/4
f 8/13/4 11/14/5 4/22/5
f 16/25/9 15/24/9 9/23/9
f 15/24/9 16/25/9 11/26/9
f 15/24/9 11/26/9 14/27/9
f 14/27/9 11/26/9 13/28/9
f 13/28/9 11/26/9 12/29/9
f 12/29/9 11/26/9 10/30/9
f 2/33/10 9/32/10 1/31/10
f 9/32/10 2/33/10 16/34/10
f 2/37/11 11/36/11 16/35/11
f 11/36/11 2/37/11 4/38/11
f 3/10/3 9/11/2 15/39/3
f 15/39/3 5/40/8 3/10/3
f 14/20/8 6/21/7 5/40/8
f 5/40/8 15/39/3 14/20/8
f 19/33/13 18/42/12 17/41/12
f 17/41/12 21/44/14 20/43/14
f 20/43/14 23/46/15 22/45/15
f 23/49/15 24/48/16 22/47/15
f 23/46/15 20/43/14 21/44/14
f 21/44/14 17/41/12 18/42/12
f 18/42/12 19/33/13 25/34/13
f 19/52/11 26/51/11 25/50/11
f 26/51/11 19/52/11 27/53/11
f 26/14/17 29/55/17 28/54/17
f 29/55/17 26/14/17 27/22/17
f 26/58/9 18/57/9 25/56/9
f 18/57/9 26/58/9 21/59/9
f 21/59/9 26/58/9 23/60/9
f 23/60/9 26/58/9 30/61/9
f 30/61/9 26/58/9 31/62/9
f 31/62/9 26/58/9 28/63/9
f 17/66/1 27/65/1 19/64/1
f 27/65/1 17/66/1 20/67/1
f 27/65/1 20/67/1 22/68/1
f 27/65/1 22/68/1 24/69/1
f 27/65/1 24/69/1 32/70/1
f 27/65/1 32/70/1 29/71/1
f 29/74/18 31/73/19 28/72/18
f 32/76/19 30/75/16 31/73/19
f 31/73/19 29/74/18 32/76/19
f 30/75/16 32/76/19 24/48/16
f 24/48/16 23/49/15 30/75/16
f 35/79/9 34/78/9 33/77/9
f 35/79/9 33/77/9 36/80/9
f 35/79/9 36/80/9 37/81/9
f 35/79/9 38/82/9 34/78/9
f 38/82/9 40/84/9 39/83/9
f 40/84/9 38/82/9 35/79/9
f 43/87/1 42/86/1 41/85/1
f 41/85/1 42/86/1 44/88/1
f 44/88/1 42/86/1 45/89/1
f 45/89/1 42/86/1 46/90/1
f 42/86/1 48/92/1 47/91/1
f 48/92/1 42/86/1 43/87/1
f 36/95/21 46/94/20 37/93/20
f 46/94/20 36/95/21 45/96/21
f 42/98/22 40/11/22 35/97/22
f 40/11/22 42/98/22 47/9/22
f 37/93/20 42/100/23 35/99/23
f 42/100/23 37/93/20 46/94/20
f 48/103/10 40/102/10 47/101/10
f 40/102/10 48/103/10 39/104/10
f 33/105/24 45/96/21 36/95/21
f 45/96/21 33/105/24 44/106/24
f 41/109/25 33/108/24 34/107/25
f 33/108/24 41/109/25 44/110/24
f 48/37/26 38/111/27 39/35/26
f 38/111/27 48/37/26 43/112/27
f 43/112/27 34/107/25 38/111/27
f 34/107/25 43/112/27 41/109/25
f 51/51/28 50/113/29 49/53/28
f 54/114/31 53/102/30 52/101/30
f 56/116/32 55/115/31 54/114/31
f 58/118/33 57/117/32 56/116/32
f 58/121/33 60/120/34 59/119/33
f 57/117/32 58/118/33 59/122/33
f 55/115/31 56/116/32 57/117/32
f 53/102/30 54/114/31 55/115/31
f 51/123/17 62/100/17 61/99/17
f 62/100/17 51/123/17 49/124/17
f 62/74/22 53/125/22 61/72/22
f 53/125/22 62/74/22 52/126/22
f 55/129/9 61/128/9 53/127/9
f 61/128/9 55/129/9 57/130/9
f 61/128/9 57/130/9 59/131/9
f 61/128/9 59/131/9 60/132/9
f 61/128/9 60/132/9 63/133/9
f 61/128/9 63/133/9 51/134/9
f 62/137/1 54/136/1 52/135/1
f 54/136/1 62/137/1 56/138/1
f 56/138/1 62/137/1 58/139/1
f 58/139/1 62/137/1 64/140/1
f 64/140/1 62/137/1 50/141/1
f 50/141/1 62/137/1 49/142/1
f 64/144/34 63/143/29 60/120/34
f 60/120/34 58/121/33 64/144/34
f 63/143/29 64/144/34 50/113/29
f 50/113/29 51/51/28 63/143/29
f 52/101/10 25/34/10 19/33/10
f 25/34/10 52/101/10 53/102/10
f 52/52/11 35/36/11 53/50/11
f 35/36/11 52/52/11 42/38/11
f 35/79/9 25/56/9 53/127/9
f 25/56/9 35/79/9 11/26/9
f 4/4/1 52/135/1 19/64/1
f 52/135/1 4/4/1 42/86/1
f 4/98/22 25/125/22 11/97/22
f 25/125/22 4/98/22 19/126/22
f 35/99/17 4/22/17 11/14/17
f 4/22/17 35/99/17 42/100/17
f 27/33/10 28/32/10 29/31/10
f 28/32/10 27/33/10 26/34/10
f 27/53/11 16/35/11 26/51/11
f 16/35/11 27/53/11 2/37/11
f 16/25/9 28/63/9 26/58/9
f 28/63/9 16/25/9 9/23/9
f 1/1/1 27/65/1 29/71/1
f 27/65/1 1/1/1 2/2/1
f 1/9/22 28/72/22 9/11/22
f 28/72/22 1/9/22 29/74/22
f 16/14/17 1/55/17 9/54/17
f 1/55/17 16/14/17 2/22/17
f 49/103/10 61/102/10 62/101/10
f 61/102/10 49/103/10 51/104/10
f 49/53/11 39/35/11 51/51/11
f 39/35/11 49/53/11 48/37/11
f 39/83/9 61/128/9 51/134/9
f 61/128/9 39/83/9 40/84/9
f 47/91/1 49/142/1 62/137/1
f 49/142/1 47/91/1 48/92/1
f 47/9/22 61/72/22 40/11/22
f 61/72/22 47/9/22 62/74/22
f 39/123/17 47/100/17 40/99/17
f 47/100/17 39/123/17 48/124/17

